HIERARCHY
ROOT Hips
{
	OFFSET 0.00000 0.00000 0.00000
	CHANNELS 6 Xposition Yposition Zposition Zrotation Yrotation Xrotation 
	JOINT LHipJoint
	{
		OFFSET 0 0 0
		CHANNELS 3 Zrotation Yrotation Xrotation
		JOINT LeftHip
		{
			OFFSET 1.74857 -1.85566 0.69197
			CHANNELS 3 Zrotation Yrotation Xrotation
			JOINT LeftKnee
			{
				OFFSET 2.40003 -6.59403 0.00000
				CHANNELS 3 Zrotation Yrotation Xrotation
				JOINT LeftAnkle
				{
					OFFSET 2.82169 -7.75254 0.00000
					CHANNELS 3 Zrotation Yrotation Xrotation
					JOINT LeftToe
					{
						OFFSET 0.16466 -0.45240 2.26890
						CHANNELS 3 Zrotation Yrotation Xrotation
						End Site
						{
							OFFSET 0.00000 -0.00000 1.16486
						}
					}
				}
			}
		}
	}
	JOINT RHipJoint
	{
		OFFSET 0 0 0
		CHANNELS 3 Zrotation Yrotation Xrotation
		JOINT RightHip
		{
			OFFSET -1.64169 -1.85566 0.69197
			CHANNELS 3 Zrotation Yrotation Xrotation
			JOINT RightKnee
			{
				OFFSET -2.41814 -6.64379 0.00000
				CHANNELS 3 Zrotation Yrotation Xrotation
				JOINT RightAnkle
				{
					OFFSET -2.80588 -7.70911 0.00000
					CHANNELS 3 Zrotation Yrotation Xrotation
					JOINT RightToe
					{
						OFFSET -0.19098 -0.52472 2.25401
						CHANNELS 3 Zrotation Yrotation Xrotation
						End Site
						{
							OFFSET -0.00000 -0.00000 1.16333
						}
					}
				}
			}
		}
	}
	JOINT lowerback
	{
		OFFSET 0 0 0
		CHANNELS 3 Zrotation Yrotation Xrotation
		JOINT Chest
		{
			OFFSET -0.02828 2.14690 -0.11061
			CHANNELS 3 Zrotation Yrotation Xrotation
			JOINT Chest2
			{
				OFFSET -0.00167 2.15299 0.00759
				CHANNELS 3 Zrotation Yrotation Xrotation
				JOINT lowerneck
				{
					OFFSET 0 0 0
					CHANNELS 3 Zrotation Yrotation Xrotation
					JOINT Neck
					{
						OFFSET -0.09296 1.90118 0.07197
						CHANNELS 3 Zrotation Yrotation Xrotation
						JOINT Head
						{
							OFFSET 0.08490 1.89526 -0.24604
							CHANNELS 3 Zrotation Yrotation Xrotation
							End Site
							{
								OFFSET 0.03186 1.92109 -0.09483
							}
						}
					}
				}
				JOINT LeftCollar
				{
					OFFSET 0 0 0
					CHANNELS 3 Zrotation Yrotation Xrotation
					JOINT LeftShoulder
					{
						OFFSET 3.21569 1.44644 -0.03720
CHANNELS 3 Zrotation Xrotation Yrotation
						JOINT LeftElbow
						{
OFFSET 0 -5.476510 -0.000000
CHANNELS 3 Zrotation Xrotation Yrotation
							JOINT LeftWrist
							{
OFFSET 0 -3.090580 -0.000000
CHANNELS 3 Zrotation Xrotation Yrotation
								JOINT lhand
								{
									OFFSET 0 0 0
CHANNELS 3 Zrotation Xrotation Yrotation
									JOINT LFingers
									{
OFFSET 0 -0.771610 -0.000000
CHANNELS 3 Zrotation Xrotation Yrotation
										End Site
										{
OFFSET 0 -0.622090 -0.000000
										}
									}
								}
								JOINT LThumb
								{
OFFSET 0 0.000000 0.000000
CHANNELS 3 Zrotation Xrotation Yrotation
									End Site
									{
OFFSET 0 -0.631590 0.631590
									}
								}
							}
						}
					}
				}
				JOINT RightCollar
				{
					OFFSET 0 0 0
					CHANNELS 3 Zrotation Yrotation Xrotation
					JOINT RightShoulder
					{
						OFFSET -3.38693 1.28904 -0.07093
CHANNELS 3 Zrotation Xrotation Yrotation
						JOINT RightElbow
						{
OFFSET 0 -5.141820 -0.000000
CHANNELS 3 Zrotation Xrotation Yrotation
							JOINT RightWrist
							{
OFFSET 0 -3.355650 -0.000000
CHANNELS 3 Zrotation Xrotation Yrotation
								JOINT rhand
								{
									OFFSET 0 0 0
CHANNELS 3 Zrotation Xrotation Yrotation
									JOINT RFingers
									{
OFFSET 0 -0.801040 -0.000000
CHANNELS 3 Zrotation Xrotation Yrotation
										End Site
										{
OFFSET 0 -0.645820 -0.000000
										}
									}
								}
								JOINT RThumb
								{
OFFSET 0 0.000000 0.000000
CHANNELS 3 Zrotation Xrotation Yrotation
									End Site
									{
OFFSET 0 -0.655680 0.655680
									}
								}
							}
						}
					}
				}
			}
		}
	}
}
MOTION
Frames: 12
Frame Time: 0.008333333333333333
-0.582100 18.098900 -0.751500 2.853500 1.592500 0.060100 0.000000 0.000000 0.000000 -19.896500 -5.401000 -1.625300 0.594400 4.935600 13.725100 0.230800 8.072500 -15.346500 0.926000 -6.130400 -17.163200 0.000000 0.000000 0.000000 18.426600 5.592900 -5.335300 -1.418900 -7.533100 21.304600 -0.432000 -9.797000 -19.596700 -0.117700 2.211800 -6.091300 -1.803200 2.183100 4.804100 0.471800 2.837500 2.888100 1.361700 1.395300 0.165900 -6.812900 -7.293500 -4.651300 2.867500 -9.484900 8.073000 1.653800 -4.787700 4.012500 -0.000000 0.000000 0.000000 29.350000 1.417800 -70.682700 132.553100 -51.912400 95.850300 0.671500 -13.857300 -15.973800 0.000000 0.000000 0.000000 -7.125000 0.000000 0.000000 -24.707000 44.421800 -0.376600 -0.000000 0.000000 0.000000 -31.328100 7.004000 66.516000 -130.011800 -52.990800 -93.835200 -13.917500 -33.946300 -28.078900 0.000000 0.000000 0.000000 7.125000 0.000000 -0.000000 9.723700 1.545800 9.598200
-0.632222 18.097131 -0.902194 2.904022 2.274207 0.400311 0.000000 0.000000 0.000000 -19.624935 -5.670257 -3.079294 0.652297 5.166142 14.382959 0.213764 7.574221 -14.566404 1.091142 -6.637569 -18.646342 0.000000 0.000000 0.000000 18.429840 5.633835 -6.634601 -1.512824 -7.767517 22.010184 -0.421097 -9.975874 -19.663417 -0.092619 1.963035 -5.403420 -1.571779 2.126034 5.591962 0.567556 2.759778 3.292115 1.313303 1.355989 0.152418 -6.983358 -6.967964 -5.111628 3.262845 -9.021905 7.223967 1.842389 -4.537821 3.811030 0.000000 0.000000 0.000000 34.447530 -5.567170 -74.606524 133.941280 -51.276598 96.938162 0.780868 -20.106954 -17.137204 0.000000 0.000000 0.000000 -7.125000 0.000000 0.000000 -25.105624 45.489529 0.324133 0.000000 0.000000 0.000000 -37.596290 2.120391 71.758039 -132.349523 -52.002677 -95.689968 -17.112201 -44.541021 -27.939018 0.000000 0.000000 0.000000 7.125000 0.000000 0.000000 7.826267 1.189480 7.734657
-0.693044 18.089016 -1.078479 2.923906 2.742777 1.198600 0.000000 0.000000 0.000000 -19.245509 -6.299740 -5.421198 0.778733 5.634002 15.726101 0.221841 7.094835 -14.181452 1.096525 -6.653955 -18.694296 0.000000 0.000000 0.000000 18.378966 5.904242 -8.718446 -1.651520 -8.098989 23.015252 -0.422943 -9.853699 -19.557440 -0.075535 1.772879 -4.878293 -1.094232 2.105782 6.242316 0.574565 2.747516 3.359386 1.030759 1.357042 -0.117277 -6.740453 -6.597412 -5.103989 3.363271 -8.528267 5.766954 1.881270 -4.273497 3.262062 0.000000 0.000000 0.000000 40.313375 -13.249946 -75.888105 136.039980 -50.248501 98.563757 0.586306 -26.571070 -17.204296 0.000000 0.000000 0.000000 -7.125000 0.000000 0.000000 -25.303560 45.526602 0.351617 0.000000 0.000000 0.000000 -44.416781 -4.193462 74.757872 -135.189986 -50.674760 -97.908181 -19.971258 -52.305877 -28.226681 0.000000 0.000000 0.000000 7.125000 0.000000 0.000000 6.168084 0.398791 6.160822
-0.757410 18.060471 -1.267216 2.776294 3.069075 1.722348 0.000000 0.000000 0.000000 -18.649741 -6.858460 -7.953896 0.992430 6.340329 17.775114 0.258029 6.391783 -14.022265 1.033435 -6.465941 -18.142540 0.000000 0.000000 0.000000 18.527062 6.018077 -10.716909 -1.813781 -8.466921 24.141518 -0.411168 -9.680317 -19.252442 -0.086952 1.901663 -5.234016 0.049085 2.034336 7.176001 0.399360 2.712877 3.368238 0.179011 1.354140 -0.563236 -6.530625 -6.308254 -5.327291 3.541492 -8.138336 4.757529 1.930022 -4.061117 2.933598 0.000000 0.000000 0.000000 47.381686 -21.024136 -73.955136 138.656269 -48.846015 100.554935 2.091897 -31.524616 -17.534560 0.000000 0.000000 0.000000 -7.125000 0.000000 0.000000 -24.135226 46.012073 0.640172 0.000000 0.000000 0.000000 -51.624118 -11.755927 74.736756 -138.734609 -48.801705 -100.613815 -23.738298 -59.972870 -29.336242 0.000000 0.000000 0.000000 7.125000 0.000000 0.000000 4.109057 -1.496148 4.225648
-0.823226 18.012574 -1.428265 2.511265 3.177976 1.636046 0.000000 0.000000 0.000000 -17.954149 -6.928912 -10.100918 1.291106 7.199098 20.306756 0.324545 5.500755 -14.191133 0.914820 -6.091802 -17.051760 0.000000 0.000000 0.000000 18.857489 5.590596 -12.258980 -2.012415 -8.891830 25.457628 -0.472950 -8.839544 -19.091833 -0.087680 1.909069 -5.254448 0.490775 1.987910 8.727708 0.869119 2.702405 2.980284 0.347115 1.345915 -1.822067 -6.456083 -5.990351 -5.172150 2.933104 -7.686598 4.436629 1.747775 -3.852415 2.733032 0.000000 0.000000 0.000000 54.108891 -27.734040 -68.966170 140.884656 -47.536772 102.216150 4.570824 -35.232388 -16.904918 0.000000 0.000000 0.000000 -7.125000 0.000000 0.000000 -21.691346 45.738879 0.415285 0.000000 0.000000 0.000000 -60.042598 -19.671504 71.269110 -142.074358 -46.791092 -103.088362 -25.724514 -66.523077 -29.236952 0.000000 0.000000 0.000000 7.125000 0.000000 0.000000 2.942764 -1.836085 3.039246
-0.887998 17.955402 -1.557306 2.389533 3.066004 1.166153 0.000000 0.000000 0.000000 -17.393993 -6.528632 -12.299769 1.740982 8.304276 23.642212 0.399635 4.163328 -14.204356 0.883828 -5.992939 -16.763858 0.000000 0.000000 0.000000 19.135344 5.565797 -13.224730 -2.257683 -9.383254 27.001748 -0.520140 -8.364348 -19.157227 -0.086658 1.899114 -5.226963 0.894567 2.046489 8.466018 1.247556 2.807639 3.698852 0.527699 1.402531 -0.935661 -6.773294 -5.953496 -5.472841 2.801037 -7.577741 3.676183 1.765247 -3.797734 2.535556 0.000000 0.000000 0.000000 62.718815 -34.591665 -58.233428 142.322546 -46.632034 103.269347 6.118235 -43.014251 -16.663509 0.000000 0.000000 0.000000 -7.125000 0.000000 0.000000 -20.226747 45.702361 0.365631 0.000000 0.000000 0.000000 -69.317258 -27.774517 62.121709 -144.281571 -45.318233 -104.678014 -29.867738 -75.365258 -29.418990 0.000000 0.000000 0.000000 7.125000 0.000000 0.000000 0.586164 -3.053968 0.616704
-0.933032 17.896271 -1.651445 2.294688 3.550593 0.555169 0.000000 0.000000 0.000000 -16.770155 -6.617259 -14.347058 2.296097 9.456984 27.235943 0.433440 2.432558 -13.564090 0.910796 -6.080069 -17.017208 0.000000 0.000000 0.000000 19.339853 4.956793 -13.860120 -2.475563 -9.793349 28.310102 -0.555017 -8.114466 -19.303430 -0.097771 2.016590 -5.551489 1.609396 1.887072 8.231949 1.275258 2.637340 4.211906 0.193632 1.330439 -0.244444 -6.601309 -5.972167 -5.724578 2.927965 -7.598816 2.975188 1.776112 -3.793536 2.345814 0.000000 0.000000 0.000000 72.512742 -39.430222 -43.670165 142.181389 -46.723007 103.166604 7.759868 -50.653109 -17.112832 0.000000 0.000000 0.000000 -7.125000 0.000000 0.000000 -18.933294 46.330372 0.644464 0.000000 0.000000 0.000000 -79.262876 -33.911945 47.883331 -144.767853 -44.977120 -105.022780 -31.810981 -83.828098 -28.926946 0.000000 0.000000 0.000000 7.125000 0.000000 0.000000 -0.622060 -3.055539 -0.654286
-0.957235 17.884555 -1.713442 1.795415 4.011877 0.021372 0.000000 0.000000 0.000000 -15.454426 -7.116512 -15.984211 2.817852 10.393984 30.262503 0.368888 0.367554 -11.614073 0.671827 -5.234932 -14.581301 0.000000 0.000000 0.000000 19.981642 4.651696 -13.456540 -2.441075 -9.729893 28.106414 -0.541334 -8.259828 -19.288261 -0.079702 1.819545 -5.007229 1.911343 1.763888 8.721580 1.743719 2.520121 4.022167 0.494477 1.268273 -0.718377 -7.115473 -6.075259 -6.094460 3.310055 -7.692007 3.252772 1.975016 -3.836314 2.559290 0.000000 0.000000 0.000000 81.299885 -41.712893 -28.761208 139.619933 -48.292713 101.277341 8.422383 -57.681055 -17.610059 0.000000 0.000000 0.000000 -7.125000 0.000000 0.000000 -18.526646 46.888192 0.893059 0.000000 0.000000 0.000000 -89.652406 -37.626839 32.029505 -142.732897 -46.364369 -103.566819 -32.169568 -91.031610 -27.088938 0.000000 0.000000 0.000000 7.125000 0.000000 0.000000 -1.181953 -1.156794 -1.205817
-0.942911 17.906476 -1.745800 1.635159 3.890813 -0.468500 0.000000 0.000000 0.000000 -14.695842 -7.714490 -16.149226 3.010545 10.712116 31.314946 0.335888 -1.332218 -10.562164 0.793777 -5.686626 -15.877771 0.000000 0.000000 0.000000 20.175709 4.588245 -12.379217 -2.255307 -9.378714 26.987340 -0.494312 -8.406717 -18.916522 -0.070289 1.709868 -4.704461 2.269575 2.010164 8.561685 1.470407 2.862674 4.126181 -0.008203 1.448374 -0.489099 -6.701821 -6.293195 -6.128371 3.771933 -8.042805 3.410661 2.032880 -3.993008 2.642615 0.000000 0.000000 0.000000 91.502398 -44.371225 -14.089958 132.840672 -51.782125 96.076038 8.540257 -64.252194 -17.604196 0.000000 0.000000 0.000000 -7.125000 0.000000 0.000000 -18.417772 46.897888 0.892012 0.000000 0.000000 0.000000 -98.362243 -38.989132 16.425275 -137.270771 -49.604996 -99.505250 -30.648147 -94.062539 -26.694819 0.000000 0.000000 0.000000 7.125000 0.000000 0.000000 -0.360109 -0.325370 -0.362371
-0.875561 17.946518 -1.734694 1.895533 3.222878 -0.865602 0.000000 0.000000 0.000000 -14.913558 -9.172001 -13.704522 2.613511 10.041145 29.110374 0.341590 -1.246549 -10.674215 0.649932 -5.156341 -14.355088 0.000000 0.000000 0.000000 19.746078 4.617413 -11.042714 -2.034812 -8.938143 25.602102 -0.444738 -8.557574 -18.509421 -0.114599 2.182427 -6.010171 1.836693 2.234180 8.363237 1.213114 3.117195 4.178543 -0.042926 1.573798 -0.331183 -6.625635 -6.151365 -5.959440 3.950111 -7.879926 3.378036 2.092411 -3.907444 2.596887 0.000000 0.000000 0.000000 100.870328 -45.233693 -1.197990 123.331690 -55.351374 88.415086 9.328789 -68.979468 -18.183649 0.000000 0.000000 0.000000 -7.125000 0.000000 0.000000 -17.925097 47.556035 1.166209 0.000000 0.000000 0.000000 -105.921066 -40.266741 2.710947 -127.372705 -53.997493 -91.712650 -25.476654 -93.155647 -23.881128 0.000000 0.000000 0.000000 7.125000 0.000000 0.000000 2.329747 3.873211 2.168465
-0.769128 17.965557 -1.726772 1.736061 2.478480 -0.909740 0.000000 0.000000 0.000000 -14.998515 -9.838590 -10.997656 2.054203 8.977931 25.726568 0.347943 -0.814570 -10.886347 0.633859 -5.094044 -14.177017 0.000000 0.000000 0.000000 19.587209 4.958261 -10.331446 -1.895092 -8.644018 24.687919 -0.449624 -8.356211 -18.372184 -0.131828 2.340099 -6.446541 1.557988 2.340579 8.358632 1.040024 3.234258 4.227441 -0.073338 1.630364 -0.282302 -6.694600 -5.921765 -6.687494 4.444593 -7.558334 3.831859 2.266167 -3.728287 2.899225 0.000000 0.000000 0.000000 109.475498 -45.808085 10.667213 109.386025 -58.529289 76.705726 7.673683 -70.981317 -18.253113 0.000000 0.000000 0.000000 -7.125000 0.000000 0.000000 -19.459395 47.399558 1.195567 0.000000 0.000000 0.000000 -113.294480 -41.437003 -8.668911 -113.475089 -57.809308 -80.180185 -23.238239 -93.127421 -23.419750 0.000000 0.000000 0.000000 7.125000 0.000000 0.000000 3.656217 4.784800 3.345194
-0.622170 17.989165 -1.724042 1.416755 1.897133 -0.486875 0.000000 0.000000 0.000000 -15.453679 -8.471939 -9.342535 1.508658 7.756929 21.978443 0.373698 -0.053748 -11.530078 0.450966 -4.308192 -11.945435 0.000000 0.000000 0.000000 19.394087 5.358812 -10.117761 -1.745020 -8.313408 23.670082 -0.431296 -8.351167 -18.159288 -0.140681 2.417109 -6.659904 1.322181 2.428482 8.162101 0.886663 3.327434 4.248270 -0.097054 1.675609 -0.156168 -6.317950 -5.741065 -6.805589 4.685471 -7.346459 3.385727 2.291516 -3.606808 2.750195 0.000000 0.000000 0.000000 117.577837 -46.456180 21.028519 92.537523 -59.970711 62.197299 6.431118 -73.248769 -19.163701 0.000000 0.000000 0.000000 -7.125000 0.000000 0.000000 -20.971793 48.085913 1.666122 0.000000 0.000000 0.000000 -119.220451 -42.529845 -18.555969 -95.106156 -59.896283 -64.420443 -18.343846 -92.245587 -21.344865 0.000000 0.000000 0.000000 7.125000 0.000000 0.000000 6.544876 7.722517 5.643994
